<svg xmlns="http://www.w3.org/2000/svg" width="500" height="500" style="width:100%;height:100%;transform:translate3d(0,0,0);content-visibility:visible" viewBox="0 0 500 500"><defs><clipPath id="a"><path d="M0 0h500v500H0z"/></clipPath><clipPath id="d"><path d="M0 0h500v500H0z"/></clipPath><clipPath id="c"><path d="M0 0h500v500H0z"/></clipPath><clipPath id="b"><path d="M0 0h500v500H0z"/></clipPath></defs><g clip-path="url(#a)"><g clip-path="url(#b)" style="display:none"><g class="primary design" style="display:none"><path class="primary"/></g><g class="primary design" style="display:none"><path fill="none" class="primary"/><path class="primary"/></g><g class="primary design" style="display:none"><path fill="none" class="primary"/></g></g><g clip-path="url(#c)" style="display:block"><g class="primary design" style="display:none"><path fill="#E8392F" d="M335.824 94.193c-27.079 0-52.7 10.624-71.863 29.787-5.208 5.208-9.79 11.248-13.956 17.497-3.958-6.249-8.749-12.29-14.581-18.122-39.577-38.952-103.942-38.743-143.31.625-39.37 39.369-39.786 108.941-.626 148.518l147.268 149.976c2.917 2.916 6.874 4.583 11.249 4.583 4.374 0 8.123-1.667 11.248-4.583l146.643-149.351c39.577-39.785 39.577-109.358 0-149.143-19.372-19.163-44.784-29.787-72.072-29.787" class="primary"/></g><g class="primary design" style="display:none"><path class="primary"/><path fill="none" class="primary"/></g><g class="primary design" style="display:block"><path fill="#E8392F" d="M335.824 94.193c-27.079 0-52.7 10.624-71.863 29.787-5.208 5.208-9.79 11.248-13.956 17.497-3.958-6.249-8.749-12.29-14.581-18.122-39.577-38.952-103.942-38.743-143.31.625-39.37 39.369-39.786 108.941-.626 148.518l147.268 149.976c2.917 2.916 6.874 4.583 11.249 4.583 4.374 0 8.123-1.667 11.248-4.583l146.643-149.351c39.577-39.785 39.577-109.358 0-149.143-19.372-19.163-44.784-29.787-72.072-29.787" class="primary"/></g></g><g clip-path="url(#d)" style="display:none"><g class="primary design" style="display:none"><path class="primary"/></g><g class="primary design" style="display:none"><path class="primary"/><path fill="none" class="primary"/></g><g class="primary design" style="display:none"><path class="primary"/></g></g></g></svg>